<svg xmlns="http://www.w3.org/2000/svg" viewBox="0 0 1500 1700" role="img" aria-labelledby="title desc">
  <title id="title">Balcony wave</title>
  <desc id="desc">Two royal siblings waving from a golden balcony.</desc>
  <defs>
    <linearGradient id="skyBlue" x1="0" x2="0" y1="0" y2="1">
      <stop offset="0%" stop-color="#9ed8ff"/>
      <stop offset="100%" stop-color="#6eb4ff"/>
    </linearGradient>
    <linearGradient id="balcony" x1="0" x2="1">
      <stop offset="0%" stop-color="#f6d17a"/>
      <stop offset="100%" stop-color="#e4a93d"/>
    </linearGradient>
    <linearGradient id="dress" x1="0" x2="0" y1="0" y2="1">
      <stop offset="0%" stop-color="#7cc5ff"/>
      <stop offset="100%" stop-color="#4c99e6"/>
    </linearGradient>
    <linearGradient id="suit" x1="0" x2="0" y1="0" y2="1">
      <stop offset="0%" stop-color="#f3ede2"/>
      <stop offset="100%" stop-color="#e3d7c6"/>
    </linearGradient>
  </defs>
  <rect width="1500" height="1700" fill="url(#skyBlue)"/>
  <rect x="-40" y="0" width="360" height="1700" fill="#ba1b2a"/>
  <rect x="1180" y="0" width="360" height="1700" fill="#ba1b2a"/>
  <rect x="320" y="0" width="860" height="1700" fill="#f6e7d1"/>
  <rect x="300" y="700" width="900" height="380" rx="40" fill="#ead3aa" stroke="#d0b37e" stroke-width="14"/>
  <rect x="250" y="1000" width="1000" height="220" rx="50" fill="url(#balcony)" stroke="#c28b2b" stroke-width="14"/>
  <path d="M270 1110 h960 v90 q0 30 -30 30 h-900 q-30 0 -30 -30z" fill="#fce7ba"/>
  <g transform="translate(420 620)">
    <path d="M180 200 q-80 0 -130 160 q-40 140 -10 280 q30 160 200 160 q170 0 200 -160 q30 -140 -10 -280 q-50 -160 -130 -160 z" fill="url(#dress)" stroke="#2b5cb8" stroke-width="14"/>
    <path d="M160 260 q-60 120 -60 190 q0 50 60 50 h240 q60 0 60 -50 q0 -70 -60 -190" fill="#9dd1ff" opacity="0.55"/>
    <circle cx="200" cy="30" r="130" fill="#fde8d0"/>
    <circle cx="420" cy="40" r="130" fill="#f5dcc2"/>
    <circle cx="300" cy="-60" r="140" fill="#221c17"/>
    <rect x="140" y="-90" width="320" height="140" rx="70" fill="#2f2720"/>
    <circle cx="220" cy="30" r="24" fill="#0f1015"/>
    <circle cx="340" cy="30" r="24" fill="#0f1015"/>
    <path d="M220 70 q40 34 80 0" stroke="#0f1015" stroke-width="12" fill="none" stroke-linecap="round"/>
    <path d="M250 -60 l35 60 l35 -60 l35 60 l35 -60" fill="#f5c143" stroke="#c98a12" stroke-width="10"/>
    <path d="M460 220 q130 80 130 270 q0 140 -130 190" fill="#e8ded3" stroke="#d0c2b2" stroke-width="14"/>
    <rect x="440" y="240" width="180" height="360" rx="80" fill="#f0e7d7" stroke="#d0c2b2" stroke-width="12"/>
  </g>
  <g transform="translate(780 700)">
    <path d="M200 240 q-70 -20 -120 140 q-50 150 -20 280 q30 150 200 150 q170 0 200 -150 q30 -130 -20 -280 q-50 -160 -120 -140 z" fill="url(#suit)" stroke="#c7b8a7" stroke-width="12"/>
    <circle cx="220" cy="80" r="120" fill="#f6e2c9" stroke="#d6c4b1" stroke-width="10"/>
    <rect x="110" y="20" width="220" height="140" rx="70" fill="#efe7db"/>
    <circle cx="170" cy="90" r="20" fill="#0f1015"/>
    <circle cx="250" cy="90" r="20" fill="#0f1015"/>
    <path d="M180 130 q35 32 70 0" stroke="#0f1015" stroke-width="10" fill="none" stroke-linecap="round"/>
  </g>
</svg>
